<?xml version="1.0" encoding="UTF-8"?>
<svg width="220.65mm" height="74.897mm" version="1.1" viewBox="0 0 220.65 74.897" xmlns="http://www.w3.org/2000/svg" xmlns:cc="http://creativecommons.org/ns#" xmlns:dc="http://purl.org/dc/elements/1.1/" xmlns:rdf="http://www.w3.org/1999/02/22-rdf-syntax-ns#" xmlns:xlink="http://www.w3.org/1999/xlink">
 <defs>
  <marker id="marker1383" overflow="visible" orient="auto">
   <path transform="matrix(-.3 0 0 -.3 .69 0)" d="m8.7186 4.0337-10.926-4.0177 10.926-4.0177c-1.7455 2.3721-1.7354 5.6175-6e-7 8.0354z" fill-rule="evenodd" stroke="#000" stroke-linejoin="round" stroke-width=".625"/>
  </marker>
  <marker id="Arrow2Send" overflow="visible" orient="auto">
   <path transform="matrix(-.3 0 0 -.3 .69 0)" d="m8.7186 4.0337-10.926-4.0177 10.926-4.0177c-1.7455 2.3721-1.7354 5.6175-6e-7 8.0354z" fill-rule="evenodd" stroke="#000" stroke-linejoin="round" stroke-width=".625"/>
  </marker>
  <marker id="Arrow2Send-4" overflow="visible" orient="auto">
   <path transform="matrix(-.3 0 0 -.3 .69 0)" d="m8.7186 4.0337-10.926-4.0177 10.926-4.0177c-1.7455 2.3721-1.7354 5.6175-6e-7 8.0354z" fill-rule="evenodd" stroke="#000" stroke-linejoin="round" stroke-width=".625"/>
  </marker>
  <marker id="marker1383-4" overflow="visible" orient="auto">
   <path transform="matrix(-.3 0 0 -.3 .69 0)" d="m8.7186 4.0337-10.926-4.0177 10.926-4.0177c-1.7455 2.3721-1.7354 5.6175-6e-7 8.0354z" fill-rule="evenodd" stroke="#000" stroke-linejoin="round" stroke-width=".625"/>
  </marker>
  <marker id="marker1383-4-1" overflow="visible" orient="auto">
   <path transform="matrix(-.3 0 0 -.3 .69 0)" d="m8.7186 4.0337-10.926-4.0177 10.926-4.0177c-1.7455 2.3721-1.7354 5.6175-6e-7 8.0354z" fill-rule="evenodd" stroke="#000" stroke-linejoin="round" stroke-width=".625"/>
  </marker>
  <marker id="Arrow2Send-4-5" overflow="visible" orient="auto">
   <path transform="matrix(-.3 0 0 -.3 .69 0)" d="m8.7186 4.0337-10.926-4.0177 10.926-4.0177c-1.7455 2.3721-1.7354 5.6175-6e-7 8.0354z" fill-rule="evenodd" stroke="#000" stroke-linejoin="round" stroke-width=".625"/>
  </marker>
 </defs>
 <metadata>
  <rdf:RDF>
   <cc:Work rdf:about="">
    <dc:format>image/svg+xml</dc:format>
    <dc:type rdf:resource="http://purl.org/dc/dcmitype/StillImage"/>
    <dc:title/>
   </cc:Work>
  </rdf:RDF>
 </metadata>
 <g transform="translate(-22.307 -90.683)">
  <g>
   <path d="m59.098 101a16.458 22.822 0 0 1-8.2288 19.764 16.458 22.822 0 0 1-16.458 0 16.458 22.822 0 0 1-8.2288-19.764" fill="#ffbc00" fill-rule="evenodd" stroke="#000" stroke-width=".67896"/>
   <circle cx="36.187" cy="114.89" r="3.6211" fill="#fff100" stroke="#000" stroke-width=".69774"/>
   <text x="54.226482" y="50.035065" fill="#000000" font-family="sans-serif" font-size="10.583px" stroke-width=".26458" style="line-height:1.25" xml:space="preserve"><tspan x="54.226482" y="50.035065" font-size="5.2917px" stroke-width=".26458"/></text>
   <text x="34.526649" y="116.38129" fill="#000000" font-family="sans-serif" font-size="4.9229px" stroke-width=".18461" style="line-height:1.25" xml:space="preserve"><tspan x="34.526649" y="116.38129" font-size="4.923px" stroke-width=".18461">1</tspan></text>
   <circle id="use887" cx="43.786" cy="118.83" r="3.6211" fill="#fff100" stroke="#000" stroke-width=".69774"/>
   <text id="use889" x="42.126385" y="120.32189" fill="#000000" font-family="sans-serif" font-size="4.9229px" stroke-width=".18461" style="line-height:1.25" xml:space="preserve"><tspan x="42.126385" y="120.32189" font-size="4.923px" stroke-width=".18461">3</tspan></text>
   <text x="84.628601" y="49.391041" fill="#000000" font-family="sans-serif" font-size="4.9229px" stroke-width=".18461" style="line-height:1.25" xml:space="preserve"><tspan x="84.628601" y="49.391041" font-size="4.923px" stroke-width=".18461"/></text>
   <circle cx="33.372" cy="106.16" r="3.6211" fill="#fff100" stroke="#000" stroke-width=".69774"/>
   <text x="31.711935" y="107.65567" fill="#000000" font-family="sans-serif" font-size="4.9229px" stroke-width=".18461" style="line-height:1.25" xml:space="preserve"><tspan x="31.711935" y="107.65567" font-size="4.923px" stroke-width=".18461">4</tspan></text>
   <circle cx="51.471" cy="112.99" r="3.6211" fill="#fff100" stroke="#000" stroke-width=".69774"/>
   <text x="41.844913" y="70.782883" fill="#000000" font-family="sans-serif" font-size="4.9229px" stroke-width=".18461" style="line-height:1.25" xml:space="preserve"><tspan x="41.844913" y="70.782883" font-size="4.923px" stroke-width=".18461"/></text>
   <text x="49.776783" y="114.6418" fill="#000000" font-family="sans-serif" font-size="4.9229px" stroke-width=".18461" style="line-height:1.25" xml:space="preserve"><tspan x="49.776783" y="114.6418" font-size="4.923px" stroke-width=".18461">5</tspan></text>
   <circle id="use913" cx="52.934" cy="103.85" r="3.6211" fill="#fff100" stroke="#000" stroke-width=".69774"/>
   <text x="51.274212" y="105.34197" fill="#000000" font-family="sans-serif" font-size="4.9229px" stroke-width=".18461" style="line-height:1.25" xml:space="preserve"><tspan x="51.274212" y="105.34197" font-size="4.923px" stroke-width=".18461">6</tspan></text>
  </g>
  <use transform="translate(-9.525 4.4979)" width="100%" height="100%" xlink:href="#use913"/>
  <text x="42.013786" y="110.10447" fill="#000000" font-family="sans-serif" font-size="4.9229px" stroke-width=".18461" style="line-height:1.25" xml:space="preserve"><tspan x="42.013786" y="110.10447" font-size="4.923px" stroke-width=".18461">2</tspan></text>
  <path d="m42.598 128.59v24.342" fill="none" marker-end="url(#Arrow2Send)" stroke="#000"/>
  <use transform="translate(-1.3229 42.598)" width="100%" height="100%" xlink:href="#use887"/>
  <use transform="translate(-1.3229 42.598)" width="100%" height="100%" xlink:href="#use889"/>
  <path d="m61.739 111.35c16.202-0.0399 16.562-0.0407 16.562-0.0407" fill="none" marker-end="url(#marker1383)" stroke="#000" stroke-width=".9184"/>
  <g>
   <text x="69.260887" y="117.47501" fill="#000000" font-family="sans-serif" font-size="4.9389px" stroke-width=".26458" text-align="center" text-anchor="middle" style="line-height:0.65" xml:space="preserve"><tspan x="69.260887" y="117.47501" text-align="center">n-1 </tspan><tspan x="69.260887" y="124.35416" text-align="center">balls left</tspan></text>
   <text x="31.130857" y="138.37709" fill="#000000" font-family="sans-serif" font-size="4.9389px" stroke-width=".26458" text-anchor="middle" style="line-height:0.65" xml:space="preserve"><tspan x="31.130857" y="138.37709" text-align="center">n </tspan><tspan x="31.130857" y="145.25624" text-align="center">choices</tspan></text>
   <path d="m116.53 100.38a16.458 22.822 0 0 1-8.2288 19.764 16.458 22.822 0 0 1-16.458 0 16.458 22.822 0 0 1-8.2288-19.764" fill="#ffbc00" fill-rule="evenodd" stroke="#000" stroke-width=".67896"/>
   <circle cx="100.24" cy="118.78" r="3.6211" fill="#fff100" stroke="#000" stroke-width=".69774"/>
   <text x="98.577156" y="120.26702" fill="#000000" font-family="sans-serif" font-size="4.9229px" stroke-width=".18461" style="line-height:1.25" xml:space="preserve"><tspan x="98.577156" y="120.26702" font-size="4.9229px" stroke-width=".18461">1</tspan></text>
   <circle cx="92.395" cy="113.22" r="3.6211" fill="#fff100" stroke="#000" stroke-width=".69774"/>
   <text x="90.735359" y="114.71641" fill="#000000" font-family="sans-serif" font-size="4.9229px" stroke-width=".18461" style="line-height:1.25" xml:space="preserve"><tspan x="90.735359" y="114.71641" font-size="4.9229px" stroke-width=".18461">4</tspan></text>
   <circle cx="108.64" cy="114.49" r="3.6211" fill="#fff100" stroke="#000" stroke-width=".69774"/>
   <text x="106.94813" y="116.14629" fill="#000000" font-family="sans-serif" font-size="4.9229px" stroke-width=".18461" style="line-height:1.25" xml:space="preserve"><tspan x="106.94813" y="116.14629" font-size="4.9229px" stroke-width=".18461">5</tspan></text>
   <circle id="use913-7" cx="110.9" cy="105.62" r="3.6211" fill="#fff100" stroke="#000" stroke-width=".69774"/>
   <text x="109.2393" y="107.11104" fill="#000000" font-family="sans-serif" font-size="4.9229px" stroke-width=".18461" style="line-height:1.25" xml:space="preserve"><tspan x="109.2393" y="107.11104" font-size="4.9229px" stroke-width=".18461">6</tspan></text>
  </g>
  <use transform="translate(-10.319 5.2917)" width="100%" height="100%" xlink:href="#use913-7"/>
  <text x="99.185127" y="112.66729" fill="#000000" font-family="sans-serif" font-size="4.9229px" stroke-width=".18461" style="line-height:1.25" xml:space="preserve"><tspan x="99.185127" y="112.66729" font-size="4.9229px" stroke-width=".18461">2</tspan></text>
  <path d="m100.03 128.77v24.342" fill="none" marker-end="url(#Arrow2Send-4)" stroke="#000"/>
  <circle cx="99.899" cy="161.61" r="3.6211" fill="#fff100" stroke="#000" stroke-width=".69774"/>
  <text x="98.239388" y="163.10138" fill="#000000" font-family="sans-serif" font-size="4.9229px" stroke-width=".18461" style="line-height:1.25" xml:space="preserve"><tspan x="98.239388" y="163.10138" font-size="4.9229px" stroke-width=".18461">1</tspan></text>
  <path d="m120.52 111.26c16.185-0.0401 16.545-0.041 16.545-0.041" fill="none" marker-end="url(#marker1383-4)" stroke="#000" stroke-width=".92129"/>
  <g fill="#000000" font-family="sans-serif" stroke-width=".26458">
   <text x="129.07806" y="117.39199" font-size="4.9389px" text-align="center" text-anchor="middle" style="line-height:0.65" xml:space="preserve"><tspan x="129.07806" y="117.39199" text-align="center">n-2 </tspan><tspan x="129.07806" y="124.27113" text-align="center">balls left</tspan></text>
   <text x="88.037613" y="138.82324" font-size="4.9389px" text-anchor="middle" style="line-height:0.65" xml:space="preserve"><tspan x="88.037613" y="138.82324" text-align="center">n-1 </tspan><tspan x="88.037613" y="145.70239" text-align="center">choices</tspan></text>
   <text x="143.40417" y="111.91875" font-size="10.583px" style="line-height:1.25" xml:space="preserve"><tspan x="143.40417" y="111.91875" stroke-width=".26458">...</tspan></text>
  </g>
  <path d="m160.94 111.08c16.717-0.0392 17.088-0.0401 17.088-0.0401" fill="none" marker-end="url(#marker1383-4-1)" stroke="#000" stroke-width=".92534"/>
  <g>
   <text x="169.53595" y="116.93993" fill="#000000" font-family="sans-serif" font-size="4.9389px" stroke-width=".26458" text-align="center" text-anchor="middle" style="line-height:0.65" xml:space="preserve"><tspan x="169.53595" y="116.93993" text-align="center">n-(k-1) </tspan><tspan x="169.53595" y="123.81908" text-align="center">balls left</tspan></text>
   <text fill="#000000" font-family="sans-serif" font-size="10.583px" style="line-height:1.25;shape-inside:url(#rect127);white-space:pre" xml:space="preserve"/>
   <path d="m220.52 100.36a16.458 22.822 0 0 1-8.2288 19.764 16.458 22.822 0 0 1-16.458 0 16.458 22.822 0 0 1-8.2288-19.764" fill="#ffbc00" fill-rule="evenodd" stroke="#000" stroke-width=".67896"/>
   <circle cx="197.43" cy="114.52" r="3.6211" fill="#fff100" stroke="#000" stroke-width=".69774"/>
   <text x="195.77493" y="116.01044" fill="#000000" font-family="sans-serif" font-size="4.9229px" stroke-width=".18461" style="line-height:1.25" xml:space="preserve"><tspan x="195.77493" y="116.01044" font-size="4.9229px" stroke-width=".18461">4</tspan></text>
   <circle cx="205.74" cy="118.7" r="3.6211" fill="#fff100" stroke="#000" stroke-width=".69774"/>
   <text x="204.0502" y="120.35076" fill="#000000" font-family="sans-serif" font-size="4.9229px" stroke-width=".18461" style="line-height:1.25" xml:space="preserve"><tspan x="204.0502" y="120.35076" font-size="4.9229px" stroke-width=".18461">5</tspan></text>
   <circle cx="212.76" cy="111.94" r="3.6211" fill="#fff100" stroke="#000" stroke-width=".69774"/>
   <text x="211.10388" y="113.43218" fill="#000000" font-family="sans-serif" font-size="4.9229px" stroke-width=".18461" style="line-height:1.25" xml:space="preserve"><tspan x="211.10388" y="113.43218" font-size="4.9229px" stroke-width=".18461">6</tspan></text>
  </g>
  <path d="m204.28 128.21v24.342" fill="none" marker-end="url(#Arrow2Send-4-5)" stroke="#000"/>
  <circle cx="204.67" cy="161.05" r="3.6211" fill="#fff100" stroke="#000" stroke-width=".69774"/>
  <g fill="#000000" font-family="sans-serif">
   <text x="203.01439" y="162.54335" font-size="4.9229px" stroke-width=".18461" style="line-height:1.25" xml:space="preserve"><tspan x="203.01439" y="162.54335" font-size="4.9229px" stroke-width=".18461">5</tspan></text>
   <text x="232.53015" y="116.83396" font-size="4.9389px" stroke-width=".26458" text-align="center" text-anchor="middle" style="line-height:0.65" xml:space="preserve"><tspan x="232.53015" y="116.83396" text-align="center">n-k </tspan><tspan x="232.53015" y="123.7131" text-align="center">balls left</tspan></text>
   <text x="192.01886" y="141.44022" font-size="4.9389px" stroke-width=".26458" text-anchor="middle" style="line-height:0.65" xml:space="preserve"><tspan x="192.01886" y="141.44022" text-align="center">n-(k-1) </tspan><tspan x="192.01886" y="148.31937" text-align="center">choices</tspan></text>
   <g font-size="7.0556px" stroke-width=".26458">
    <text x="30.427084" y="96.572922" style="line-height:1.25" xml:space="preserve"><tspan x="30.427084" y="96.572922" font-size="7.0556px" stroke-width=".26458">Draw 1</tspan></text>
    <text x="86.791588" y="96.447174" style="line-height:1.25" xml:space="preserve"><tspan x="86.791588" y="96.447174" font-size="7.0556px" stroke-width=".26458">Draw 2</tspan></text>
    <text x="190.76457" y="96.043755" style="line-height:1.25" xml:space="preserve"><tspan x="190.76457" y="96.043755" font-size="7.0556px" stroke-width=".26458">Draw k</tspan></text>
   </g>
  </g>
 </g>
</svg>
